<svg xmlns="http://www.w3.org/2000/svg" viewBox="118 52 964 1072" role="img" aria-label="Attis International">
  <defs>
    <linearGradient id="g-yellow" x1="0.35" y1="0" x2="0.75" y2="1">
      <stop offset="0" stop-color="#fff200"/>
      <stop offset="1" stop-color="#f7941d"/>
    </linearGradient>
    <linearGradient id="g-cyan" x1="0" y1="0.3" x2="1" y2="0.8">
      <stop offset="0" stop-color="#0095da"/>
      <stop offset="1" stop-color="#27bdd3"/>
    </linearGradient>
    <linearGradient id="g-red" x1="0" y1="0.5" x2="1" y2="0.5">
      <stop offset="0" stop-color="#ee1c25"/>
      <stop offset="1" stop-color="#c1272d"/>
    </linearGradient>
  </defs>
  <path fill="#000" d="M600 65 L555 168 L752 305 C715 245 650 150 600 65Z"/>
  <path fill="#58595b" d="M430 295C385 355 350 415 352 478L642 618L655 450L470 335Z"/>
  <path fill="#58595b" d="M757 283C815 350 850 430 846 495C842 560 822 600 790 620L640 618L690 320Z"/>
  <path fill="url(#g-cyan)" d="M352 478C356 560 435 655 530 700C575 682 615 650 642 618Z"/>
  <path fill="#000" d="M530 700C590 715 720 705 790 620L642 618C615 650 575 682 530 700Z"/>
  <path fill="url(#g-red)" d="M555 168L752 305L750 360L600 360L445 355Z"/>
  <path fill="url(#g-yellow)" d="M445 352C470 335 545 322 588 378L640 420L640 540L562 556C515 498 465 425 445 352Z"/>
  <ellipse fill="#000" cx="662" cy="452" rx="86" ry="154" transform="rotate(8 662 452)"/>

  <g fill="#000"><path transform="translate(128 775) scale(1.0795 1.1081) translate(4.20 214.20)" d="M56.40 0L-4.20 0L88.50-210L147-210L240 0L178.20 0L161.70-40.80L72.90-40.80L56.40 0M90.30-84.60L144.30-84.60L117.30-151.80L90.30-84.60M351.90 0L292.50 0L292.50-162.90L228-162.90L228-210L416.10-210L416.10-162.90L351.90-162.90L351.90 0M533.40 0L474 0L474-162.90L409.50-162.90L409.50-210L597.60-210L597.60-162.90L533.40-162.90L533.40 0M670.20 0L610.80 0L610.80-210L670.20-210L670.20 0M777.30 4.20Q751.50 4.20 727.65-2.25Q703.80-8.70 688.80-18.90L708.30-62.70Q722.40-53.70 740.85-47.85Q759.30-42 777.60-42Q789.90-42 797.40-44.25Q804.90-46.50 808.35-50.25Q811.80-54 811.80-59.10Q811.80-66.30 805.20-70.50Q798.60-74.70 788.10-77.40Q777.60-80.10 764.85-82.80Q752.10-85.50 739.35-89.70Q726.60-93.90 716.10-100.65Q705.60-107.40 699-118.35Q692.40-129.30 692.40-146.10Q692.40-165 702.75-180.30Q713.10-195.60 733.80-204.90Q754.50-214.20 785.40-214.20Q806.10-214.20 826.05-209.55Q846-204.90 861.60-195.90L843.30-151.80Q828.30-159.90 813.60-163.95Q798.90-168 785.10-168Q772.80-168 765.30-165.45Q757.80-162.90 754.50-158.70Q751.20-154.50 751.20-149.10Q751.20-142.20 757.65-138.15Q764.10-134.10 774.75-131.55Q785.40-129 798.15-126.30Q810.90-123.60 823.65-119.55Q836.40-115.50 846.90-108.75Q857.40-102 863.85-91.05Q870.30-80.10 870.30-63.60Q870.30-45.30 859.95-29.85Q849.60-14.40 829.05-5.10Q808.50 4.20 777.30 4.20"/></g>
  <g fill="#3b3b3d"><path transform="translate(130 1052) scale(0.9603 0.8732) translate(-12.20 70.50)" d="M17.30 0L12.20 0L12.20-70L17.30-70L17.30 0M59.80 0L54.70 0L54.70-70L59-70L106.60-9.20L106.60-70L111.70-70L111.70 0L107.50 0L59.80-60.80L59.80 0M167.60 0L162.50 0L162.50-65.40L137.30-65.40L137.30-70L192.80-70L192.80-65.40L167.60-65.40L167.60 0M266.70 0L218.40 0L218.40-70L265.20-70L265.20-65.40L223.50-65.40L223.50-37.80L260.80-37.80L260.80-33.30L223.50-33.30L223.50-4.60L266.70-4.60L266.70 0M303.40 0L298.30 0L298.30-70L323.40-70Q336.60-70 344.10-63.80Q351.60-57.60 351.60-46.40Q351.60-39.10 348.20-33.85Q344.80-28.60 338.50-25.80Q336.90-25 335.20-24.50L352.70 0L346.90 0L330.20-23.40Q327-22.90 323.40-22.90L303.40-22.90L303.40 0M303.40-65.40L303.40-27.40L323.40-27.40Q334.70-27.40 340.55-32.40Q346.40-37.40 346.40-46.40Q346.40-55.50 340.55-60.45Q334.70-65.40 323.40-65.40L303.40-65.40M388.40 0L383.30 0L383.30-70L387.60-70L435.20-9.20L435.20-70L440.30-70L440.30 0L436.10 0L388.40-60.80L388.40 0M471.50 0L466 0L498.20-70L503.30-70L535.50 0L530 0L521-19.70L480.40-19.70L471.50 0M482.40-24L519.10-24L500.70-64.40L482.40-24M579.70 0L574.60 0L574.60-65.40L549.40-65.40L549.40-70L604.90-70L604.90-65.40L579.70-65.40L579.70 0M635.60 0L630.50 0L630.50-70L635.60-70L635.60 0M702.70 0.50Q694.90 0.50 688.25-2.15Q681.60-4.80 676.65-9.65Q671.70-14.50 669-20.95Q666.30-27.40 666.30-35Q666.30-42.60 669-49.05Q671.70-55.50 676.65-60.35Q681.60-65.20 688.25-67.85Q694.90-70.50 702.70-70.50Q710.50-70.50 717.15-67.85Q723.80-65.20 728.70-60.40Q733.60-55.60 736.35-49.15Q739.10-42.70 739.10-35Q739.10-27.30 736.35-20.85Q733.60-14.40 728.70-9.60Q723.80-4.80 717.15-2.15Q710.50 0.50 702.70 0.50M702.70-4.20Q709.40-4.20 715.10-6.50Q720.80-8.80 725-13Q729.20-17.20 731.55-22.80Q733.90-28.40 733.90-35Q733.90-41.70 731.55-47.25Q729.20-52.80 725-57Q720.80-61.20 715.10-63.50Q709.40-65.80 702.70-65.80Q696-65.80 690.30-63.50Q684.60-61.20 680.35-57Q676.10-52.80 673.75-47.25Q671.40-41.70 671.40-35Q671.40-28.40 673.75-22.80Q676.10-17.20 680.35-13Q684.60-8.80 690.30-6.50Q696-4.20 702.70-4.20M774.90 0L769.80 0L769.80-70L774.10-70L821.70-9.20L821.70-70L826.80-70L826.80 0L822.60 0L774.90-60.80L774.90 0M858 0L852.50 0L884.70-70L889.80-70L922 0L916.50 0L907.50-19.70L866.90-19.70L858 0M868.90-24L905.60-24L887.20-64.40L868.90-24M993.10 0L947.70 0L947.70-70L952.80-70L952.80-4.60L993.10-4.60"/></g>
</svg>
